<svg width="107" height="130" viewBox="0 0 107 130" fill="none" xmlns="http://www.w3.org/2000/svg">
<path d="M23.3223 96.0833V33.4913H1.24235V28.8833H60.6663V33.4913H38.6823V96.0833H23.3223ZM67.4868 96.0833V69.2993L44.2548 28.8833H60.4788L80.6388 64.7873L100.799 28.8833H105.983L82.8468 69.4913V96.0833H67.4868Z" fill="#6FA8C6"/>
<path d="M4.78079 123.083V107.267H6.58079V123.083H4.78079ZM1.94879 112.283V110.555H9.74879V112.283H1.94879ZM14.119 123.083V110.555H15.919V123.083H14.119ZM15.007 107.843C14.559 107.843 14.215 107.731 13.975 107.507C13.751 107.267 13.639 106.947 13.639 106.547C13.639 106.147 13.759 105.827 13.999 105.587C14.239 105.347 14.575 105.227 15.007 105.227C15.439 105.227 15.775 105.347 16.015 105.587C16.255 105.811 16.375 106.131 16.375 106.547C16.375 106.931 16.255 107.243 16.015 107.483C15.775 107.723 15.439 107.843 15.007 107.843ZM21.53 123.083V110.555H23.306L23.378 113.171L23.09 113.291C23.25 112.747 23.562 112.251 24.026 111.803C24.49 111.355 25.042 110.995 25.682 110.723C26.338 110.435 27.01 110.291 27.698 110.291C28.626 110.291 29.402 110.475 30.026 110.843C30.65 111.211 31.122 111.779 31.442 112.547C31.762 113.315 31.922 114.291 31.922 115.475V123.083H30.098V115.571C30.098 114.739 29.986 114.059 29.762 113.531C29.554 112.987 29.226 112.587 28.778 112.331C28.33 112.075 27.778 111.955 27.122 111.971C26.578 111.971 26.074 112.067 25.61 112.259C25.146 112.435 24.746 112.683 24.41 113.003C24.074 113.323 23.81 113.691 23.618 114.107C23.426 114.523 23.33 114.971 23.33 115.451V123.083H22.442C22.33 123.083 22.202 123.083 22.058 123.083C21.914 123.083 21.738 123.083 21.53 123.083ZM41.9341 123.323C40.8461 123.323 39.8621 123.043 38.9821 122.483C38.1021 121.907 37.4061 121.131 36.8941 120.155C36.3821 119.163 36.1261 118.043 36.1261 116.795C36.1261 115.531 36.3901 114.411 36.9181 113.435C37.4461 112.459 38.1501 111.691 39.0301 111.131C39.9261 110.571 40.9261 110.291 42.0301 110.291C42.6861 110.291 43.2941 110.387 43.8541 110.579C44.4141 110.771 44.9101 111.043 45.3421 111.395C45.7901 111.731 46.1581 112.131 46.4461 112.595C46.7501 113.043 46.9581 113.531 47.0701 114.059L46.5421 113.795L46.6141 110.555H48.4141V123.083H46.5901V120.011L47.0701 119.699C46.9581 120.179 46.7421 120.643 46.4221 121.091C46.1021 121.523 45.7101 121.907 45.2461 122.243C44.7981 122.579 44.2861 122.843 43.7101 123.035C43.1501 123.227 42.5581 123.323 41.9341 123.323ZM42.3421 121.595C43.1741 121.595 43.9181 121.395 44.5741 120.995C45.2301 120.579 45.7421 120.011 46.1101 119.291C46.4941 118.555 46.6861 117.723 46.6861 116.795C46.6861 115.867 46.4941 115.043 46.1101 114.323C45.7421 113.603 45.2301 113.035 44.5741 112.619C43.9181 112.203 43.1741 111.995 42.3421 111.995C41.4941 111.995 40.7421 112.203 40.0861 112.619C39.4461 113.035 38.9341 113.603 38.5501 114.323C38.1821 115.043 37.9981 115.867 37.9981 116.795C37.9981 117.707 38.1821 118.531 38.5501 119.267C38.9181 119.987 39.4301 120.555 40.0861 120.971C40.7421 121.387 41.4941 121.595 42.3421 121.595ZM64.1195 128.603L66.5435 122.699L66.7115 124.403L60.4235 110.555H62.4635L66.7595 120.155C66.8875 120.411 67.0155 120.715 67.1435 121.067C67.2715 121.403 67.3915 121.739 67.5035 122.075L66.8315 122.003C66.9435 121.731 67.0475 121.451 67.1435 121.163C67.2555 120.875 67.3595 120.595 67.4555 120.323L71.2235 110.555H73.2875L68.2235 123.083L66.0635 128.603H64.1195ZM81.521 123.323C80.433 123.323 79.449 123.043 78.569 122.483C77.689 121.907 76.993 121.131 76.481 120.155C75.969 119.163 75.713 118.043 75.713 116.795C75.713 115.531 75.977 114.411 76.505 113.435C77.033 112.459 77.737 111.691 78.617 111.131C79.513 110.571 80.513 110.291 81.617 110.291C82.273 110.291 82.881 110.387 83.441 110.579C84.001 110.771 84.497 111.043 84.929 111.395C85.377 111.731 85.745 112.131 86.033 112.595C86.337 113.043 86.545 113.531 86.657 114.059L86.129 113.795L86.201 110.555H88.001V123.083H86.177V120.011L86.657 119.699C86.545 120.179 86.329 120.643 86.009 121.091C85.689 121.523 85.297 121.907 84.833 122.243C84.385 122.579 83.873 122.843 83.297 123.035C82.737 123.227 82.145 123.323 81.521 123.323ZM81.929 121.595C82.761 121.595 83.505 121.395 84.161 120.995C84.817 120.579 85.329 120.011 85.697 119.291C86.081 118.555 86.273 117.723 86.273 116.795C86.273 115.867 86.081 115.043 85.697 114.323C85.329 113.603 84.817 113.035 84.161 112.619C83.505 112.203 82.761 111.995 81.929 111.995C81.081 111.995 80.329 112.203 79.673 112.619C79.033 113.035 78.521 113.603 78.137 114.323C77.769 115.043 77.585 115.867 77.585 116.795C77.585 117.707 77.769 118.531 78.137 119.267C78.505 119.987 79.017 120.555 79.673 120.971C80.329 121.387 81.081 121.595 81.929 121.595ZM93.1878 123.083V110.555H94.9638L95.0358 113.171L94.7478 113.291C94.9078 112.747 95.2198 112.251 95.6838 111.803C96.1478 111.355 96.6998 110.995 97.3398 110.723C97.9958 110.435 98.6678 110.291 99.3558 110.291C100.284 110.291 101.06 110.475 101.684 110.843C102.308 111.211 102.78 111.779 103.1 112.547C103.42 113.315 103.58 114.291 103.58 115.475V123.083H101.756V115.571C101.756 114.739 101.644 114.059 101.42 113.531C101.212 112.987 100.884 112.587 100.436 112.331C99.9878 112.075 99.4358 111.955 98.7798 111.971C98.2358 111.971 97.7318 112.067 97.2678 112.259C96.8038 112.435 96.4038 112.683 96.0678 113.003C95.7318 113.323 95.4678 113.691 95.2758 114.107C95.0838 114.523 94.9878 114.971 94.9878 115.451V123.083H94.0998C93.9878 123.083 93.8598 123.083 93.7158 123.083C93.5718 123.083 93.3958 123.083 93.1878 123.083Z" fill="#6FA8C6"/>
</svg>
